# xmcd
#
# Track frame offsets:
#        150
#        20553
#        42511
#        68495
#        92933
#        131753
#        166656
#        187617
#        202012
#        217320
#
# Disc length: 3191 seconds
#
# Revision: 0
# Processed by: cddbd v1.5.1PL0 Copyright (c) Steve Scherf et al.
# Submitted via: ExactAudioCopy v0.95a5
#
DISCID=8d0c750a
DTITLE=the surf coasters - surfdelicious
DYEAR=1900
DGENRE=
TTITLE0=wild cherry [takkyu ishino]
TTITLE1=fly up [ken ishii]
TTITLE2=intruder [audio active]
TTITLE3=waste land [808state]
TTITLE4=boogie man in jungle [oto]
TTITLE5=ultra q's theme [takkyu ishino]
TTITLE6=misirlou [adrian sherwood]
TTITLE7=free fall
TTITLE8=wild cherry (real drum mix)
TTITLE9=waste land (original mix)
EXTD=
EXTT0=
EXTT1=
EXTT2=
EXTT3=
EXTT4=
EXTT5=
EXTT6=
EXTT7=
EXTT8=
EXTT9=
PLAYORDER=
